<?xml version="1.0" encoding="utf-8"?>
<!-- Generator: Adobe Illustrator 25.3.1, SVG Export Plug-In . SVG Version: 6.00 Build 0)  -->
<svg version="1.1"
	 id="svg2" xmlns:cc="http://creativecommons.org/ns#" xmlns:dc="http://purl.org/dc/elements/1.1/" xmlns:rdf="http://www.w3.org/1999/02/22-rdf-syntax-ns#" xmlns:svg="http://www.w3.org/2000/svg"
	 xmlns="http://www.w3.org/2000/svg" xmlns:xlink="http://www.w3.org/1999/xlink" x="0px" y="0px" viewBox="0 0 172.4 48"
	 style="enable-background:new 0 0 172.4 48;" xml:space="preserve">
<style type="text/css">
	.st0{fill:url(#SVGID_1_);}
	.st1{fill:#FFFFFF;}
</style>
<g>
	<linearGradient id="SVGID_1_" gradientUnits="userSpaceOnUse" x1="2.4526" y1="44.9769" x2="31.5474" y2="16.7705">
		<stop  offset="0" style="stop-color:#00D2FF"/>
		<stop  offset="1" style="stop-color:#00D7B0"/>
	</linearGradient>
	<path class="st0" d="M33.8,40.4h6.6V43c0,2.2-1.8,3.9-3.9,3.9H4.9C2.8,47,1,45.2,1,43V11.5c0-2.2,1.8-3.9,3.9-3.9h2.6v6.6v6.6v6.6
		v6.6v2.6c0,2.2,1.8,3.9,3.9,3.9h2.6h6.6l6.6,4.9v-1.6v-1.6v-1.6H33.8z M33.8,21.7v4.6c0,0.5-0.4,1-1,1h-4.6c-0.5,0-1-0.4-1-1v-4.6
		c0-0.5-0.4-1-1-1h-4.6c-0.5,0-1-0.4-1-1v-4.6c0-0.5,0.4-1,1-1h4.6c0.5,0,1-0.4,1-1V7.6H14.1v6.6v6.6v6.6v2.6c0,2.2,1.8,3.9,3.9,3.9
		h2.6h6.6h6.6h6.6V20.7h-5.6C34.3,20.7,33.8,21.2,33.8,21.7z M30.6,25.2c-0.3,0-0.5,0.2-0.5,0.5c0,0.3,0.2,0.5,0.5,0.5
		s0.5-0.2,0.5-0.5C31.1,25.4,30.8,25.2,30.6,25.2z M32.9,1h-4.6c-0.5,0-1,0.4-1,1v4.6c0,0.5,0.4,1,1,1h4.6c0.5,0,1-0.4,1-1V2
		C33.9,1.5,33.4,1,32.9,1z"/>
	<path class="st1" d="M163.7,7.9h-1V7.6h2.5v0.4h-1v3.2h-0.4V7.9z M165.7,7.6h0.6l1.1,2.8l1.1-2.8h0.6v3.6h-0.4v-3l-1.2,3h-0.1
		l-1.2-3v3h-0.4V7.6z M55.3,12.2c0-1.6,1.3-3,3-3c1.6,0,3,1.3,3,3c0,1.6-1.3,3-3,3C56.6,15.2,55.3,13.9,55.3,12.2z M55.9,39.8V17.9
		h4.8v21.9H55.9z M67.7,39.8V9.5H73v25.6h13.4v4.7H67.7z M91.5,12.2c0-1.6,1.3-3,3-3c1.6,0,3,1.3,3,3c0,1.6-1.3,3-3,3
		C92.9,15.2,91.5,13.9,91.5,12.2z M92.1,39.8V17.9h4.8v21.9H92.1z M103.7,24.7c0-8.9,5.8-15.7,14.7-15.7c8.9,0,14.7,6.8,14.7,15.7
		c0,8.9-5.9,15.7-14.7,15.7C109.5,40.4,103.7,33.5,103.7,24.7z M130.4,24.7c0-7.7-4.7-13.3-12-13.3c-7.3,0-12,5.6-12,13.3
		c0,7.6,4.7,13.3,12,13.3C125.7,38,130.4,32.3,130.4,24.7z M139,35.5l1.7-2c2,2.2,5.1,4.4,9.5,4.4c6.2,0,8-3.5,8-6
		c0-8.9-18.2-4.3-18.2-14.9c0-5,4.5-8.1,10-8.1c4.5,0,8,1.6,10.3,4.3l-1.7,1.9c-2.2-2.6-5.3-3.8-8.7-3.8c-4,0-7.1,2.3-7.1,5.6
		c0,7.8,18.2,3.5,18.2,14.8c0,3.9-2.6,8.6-10.8,8.6C145.1,40.4,141.3,38.3,139,35.5z"/>
</g>
</svg>
